{
  "accessors": [
    {
      "bufferView": 2,
      "componentType": 5126,
      "count": 65533,
      "max": [
        13.69345474243164,
        0.7029650211334229,
        8.999753952026367
      ],
      "min": [
        -22.720739364624023,
        -0.6532120108604431,
        -9.083045959472656
      ],
      "type": "VEC3"
    },
    {
      "bufferView": 2,
      "byteOffset": 786396,
      "componentType": 5126,
      "count": 65533,
      "max": [
        0.9992702007293701,
        0.9219951629638672,
        0.9996690154075623
      ],
      "min": [
        -0.9963054656982422,
        -1.0,
        -0.9996209740638733
      ],
      "type": "VEC3"
    },
    {
      "bufferView": 1,
      "componentType": 5126,
      "count": 65533,
      "max": [
        0.9997559785842896,
        0.9988840222358704
      ],
      "min": [
        0.0,
        0.0
      ],
      "type": "VEC2"
    },
    {
      "bufferView": 0,
      "componentType": 5125,
      "count": 220827,
      "type": "SCALAR"
    },
    {
      "bufferView": 2,
      "byteOffset": 1572792,
      "componentType": 5126,
      "count": 65532,
      "max": [
        13.553216934204102,
        0.3900189995765686,
        8.87108039855957
      ],
      "min": [
        -17.736980438232422,
        -0.6720619797706604,
        -9.030623435974121
      ],
      "type": "VEC3"
    },
    {
      "bufferView": 2,
      "byteOffset": 2359176,
      "componentType": 5126,
      "count": 65532,
      "max": [
        0.99869704246521,
        0.916252613067627,
        0.999957799911499
      ],
      "min": [
        -0.9998050332069397,
        -0.9999992847442627,
        -0.9986840486526489
      ],
      "type": "VEC3"
    },
    {
      "bufferView": 1,
      "byteOffset": 524264,
      "componentType": 5126,
      "count": 65532,
      "max": [
        0.9997559785842896,
        0.9953230023384094
      ],
      "min": [
        0.00024399999529123306,
        0.00024399999529123306
      ],
      "type": "VEC2"
    },
    {
      "bufferView": 0,
      "byteOffset": 883308,
      "componentType": 5125,
      "count": 187254,
      "type": "SCALAR"
    },
    {
      "bufferView": 2,
      "byteOffset": 3145560,
      "componentType": 5126,
      "count": 7058,
      "max": [
        1.5635039806365967,
        0.3777180016040802,
        0.8595790266990662
      ],
      "min": [
        -18.900545120239258,
        -0.6594529747962952,
        -8.314075469970703
      ],
      "type": "VEC3"
    },
    {
      "bufferView": 2,
      "byteOffset": 3230256,
      "componentType": 5126,
      "count": 7058,
      "max": [
        0.9970351457595825,
        0.5071008801460266,
        0.9957280158996582
      ],
      "min": [
        -0.9963054656982422,
        -0.9999973773956299,
        -0.9915971159934998
      ],
      "type": "VEC3"
    },
    {
      "bufferView": 1,
      "byteOffset": 1048520,
      "componentType": 5126,
      "count": 7058,
      "max": [
        0.9997559785842896,
        0.9604889750480652
      ],
      "min": [
        0.00024399999529123306,
        0.00025099999038502574
      ],
      "type": "VEC2"
    },
    {
      "bufferView": 0,
      "byteOffset": 1632324,
      "componentType": 5125,
      "count": 14532,
      "type": "SCALAR"
    },
    {
      "bufferView": 2,
      "byteOffset": 3314952,
      "componentType": 5126,
      "count": 472,
      "max": [
        13.693458557128906,
        0.9309189915657043,
        9.004434585571289
      ],
      "min": [
        -22.723398208618164,
        -0.16646599769592285,
        -9.083258628845215
      ],
      "type": "VEC3"
    },
    {
      "bufferView": 2,
      "byteOffset": 3320616,
      "componentType": 5126,
      "count": 472,
      "max": [
        0.930273711681366,
        0.9609866142272949,
        0.9324120879173279
      ],
      "min": [
        -0.9915596842765808,
        -0.9528433680534363,
        -0.9795368909835815
      ],
      "type": "VEC3"
    },
    {
      "bufferView": 1,
      "byteOffset": 1104984,
      "componentType": 5126,
      "count": 472,
      "max": [
        0.0,
        0.0
      ],
      "min": [
        0.0,
        0.0
      ],
      "type": "VEC2"
    },
    {
      "bufferView": 0,
      "byteOffset": 1690452,
      "componentType": 5125,
      "count": 1734,
      "type": "SCALAR"
    }
  ],
  "asset": {
    "extras": {
      "author": "Thomas Flynn (https://sketchfab.com/nebulousflynn)",
      "license": "CC-BY-4.0 (http://creativecommons.org/licenses/by/4.0/)",
      "source": "https://sketchfab.com/3d-models/coelophysis-bauri-81st-street-ny-subway-1960191653da4987bce289e183d777f4",
      "title": "Coelophysis bauri - 81st Street NY Subway"
    },
    "generator": "Sketchfab-12.65.0",
    "version": "2.0"
  },
  "bufferViews": [
    {
      "buffer": 0,
      "byteLength": 1697388,
      "name": "floatBufferViews",
      "target": 34963
    },
    {
      "buffer": 0,
      "byteLength": 1108760,
      "byteOffset": 1697388,
      "byteStride": 8,
      "name": "floatBufferViews",
      "target": 34962
    },
    {
      "buffer": 0,
      "byteLength": 3326280,
      "byteOffset": 2806148,
      "byteStride": 12,
      "name": "floatBufferViews",
      "target": 34962
    }
  ],
  "buffers": [
    {
      "byteLength": 6132428,
      "uri": "dinoskeleton.bin"
    }
  ],
  "extensionsUsed": [
    "KHR_materials_unlit"
  ],
  "images": [
    {
      "uri": "textures/Coelophysis_bauri_baseColor.jpeg"
    }
  ],
  "materials": [
    {
      "doubleSided": true,
      "extensions": {
        "KHR_materials_unlit": {}
      },
      "name": "Coelophysis_bauri",
      "pbrMetallicRoughness": {
        "baseColorTexture": {
          "index": 0
        },
        "metallicFactor": 0.0
      }
    },
    {
      "doubleSided": true,
      "extensions": {
        "KHR_materials_unlit": {}
      },
      "name": "black",
      "pbrMetallicRoughness": {
        "baseColorFactor": [
          0.7156935005,
          0.7156935005,
          0.7156935005,
          1.0
        ],
        "metallicFactor": 0.0
      }
    }
  ],
  "meshes": [
    {
      "name": "Object_0",
      "primitives": [
        {
          "attributes": {
            "NORMAL": 1,
            "POSITION": 0,
            "TEXCOORD_0": 2
          },
          "indices": 3,
          "material": 0,
          "mode": 4
        }
      ]
    },
    {
      "name": "Object_1",
      "primitives": [
        {
          "attributes": {
            "NORMAL": 5,
            "POSITION": 4,
            "TEXCOORD_0": 6
          },
          "indices": 7,
          "material": 0,
          "mode": 4
        }
      ]
    },
    {
      "name": "Object_2",
      "primitives": [
        {
          "attributes": {
            "NORMAL": 9,
            "POSITION": 8,
            "TEXCOORD_0": 10
          },
          "indices": 11,
          "material": 0,
          "mode": 4
        }
      ]
    },
    {
      "name": "Object_3",
      "primitives": [
        {
          "attributes": {
            "NORMAL": 13,
            "POSITION": 12,
            "TEXCOORD_0": 14
          },
          "indices": 15,
          "material": 1,
          "mode": 4
        }
      ]
    }
  ],
  "nodes": [
    {
      "children": [
        1
      ],
      "matrix": [
        1.0,
        0.0,
        0.0,
        0.0,
        0.0,
        2.220446049250313e-16,
        -1.0,
        0.0,
        0.0,
        1.0,
        2.220446049250313e-16,
        0.0,
        0.0,
        0.0,
        0.0,
        1.0
      ],
      "name": "Sketchfab_model"
    },
    {
      "children": [
        2,
        3,
        4,
        5
      ],
      "name": "subway-archaeopteryx-100K.obj.cleaner.materialmerger.gles"
    },
    {
      "mesh": 0,
      "name": "Object_2"
    },
    {
      "mesh": 1,
      "name": "Object_3"
    },
    {
      "mesh": 2,
      "name": "Object_4"
    },
    {
      "mesh": 3,
      "name": "Object_5"
    }
  ],
  "samplers": [
    {
      "magFilter": 9729,
      "minFilter": 9987,
      "wrapS": 10497,
      "wrapT": 10497
    }
  ],
  "scene": 0,
  "scenes": [
    {
      "name": "Sketchfab_Scene",
      "nodes": [
        0
      ]
    }
  ],
  "textures": [
    {
      "sampler": 0,
      "source": 0
    }
  ]
}
