{
  "accessors": [
    {
      "bufferView": 2,
      "componentType": 5126,
      "count": 800,
      "max": [
        0.18054892122745514,
        0.533250629901886,
        2.4808602333068848
      ],
      "min": [
        -0.18121036887168884,
        -0.533250629901886,
        -2.5647644996643066
      ],
      "type": "VEC3"
    },
    {
      "bufferView": 2,
      "byteOffset": 9600,
      "componentType": 5126,
      "count": 800,
      "max": [
        0.9999886751174927,
        0.9999986886978149,
        0.9999957084655762
      ],
      "min": [
        -1.0,
        -0.9999986886978149,
        -0.9999657869338989
      ],
      "type": "VEC3"
    },
    {
      "bufferView": 3,
      "componentType": 5126,
      "count": 800,
      "max": [
        0.9868451356887817,
        0.999982476234436,
        0.9998367428779602,
        1.0
      ],
      "min": [
        -0.9220066666603088,
        -1.0,
        -0.999953031539917,
        1.0
      ],
      "type": "VEC4"
    },
    {
      "bufferView": 1,
      "componentType": 5126,
      "count": 800,
      "max": [
        0.9983846545219421,
        0.9588397741317749
      ],
      "min": [
        0.00160980224609375,
        0.0016245245933532715
      ],
      "type": "VEC2"
    },
    {
      "bufferView": 0,
      "componentType": 5125,
      "count": 3882,
      "type": "SCALAR"
    }
  ],
  "asset": {
    "extras": {
      "author": "Rzyas (https://sketchfab.com/rzyas)",
      "license": "CC-BY-4.0 (http://creativecommons.org/licenses/by/4.0/)",
      "source": "https://sketchfab.com/3d-models/shovel-a2f03b43600e40a5a58474039407f648",
      "title": "Shovel"
    },
    "generator": "Sketchfab-13.74.0",
    "version": "2.0"
  },
  "bufferViews": [
    {
      "buffer": 0,
      "byteLength": 15528,
      "name": "floatBufferViews",
      "target": 34963
    },
    {
      "buffer": 0,
      "byteLength": 6400,
      "byteOffset": 15528,
      "byteStride": 8,
      "name": "floatBufferViews",
      "target": 34962
    },
    {
      "buffer": 0,
      "byteLength": 19200,
      "byteOffset": 21928,
      "byteStride": 12,
      "name": "floatBufferViews",
      "target": 34962
    },
    {
      "buffer": 0,
      "byteLength": 12800,
      "byteOffset": 41128,
      "byteStride": 16,
      "name": "floatBufferViews",
      "target": 34962
    }
  ],
  "buffers": [
    {
      "byteLength": 53928,
      "uri": "shovel.bin"
    }
  ],
  "images": [
    {
      "uri": "textures/Sekop_Pasir_MAT_baseColor.jpeg"
    },
    {
      "uri": "textures/Sekop_Pasir_MAT_metallicRoughness.png"
    },
    {
      "uri": "textures/Sekop_Pasir_MAT_normal.png"
    }
  ],
  "materials": [
    {
      "doubleSided": true,
      "name": "Sekop_Pasir_MAT",
      "normalTexture": {
        "index": 2
      },
      "occlusionTexture": {
        "index": 1
      },
      "pbrMetallicRoughness": {
        "baseColorTexture": {
          "index": 0
        },
        "metallicRoughnessTexture": {
          "index": 1
        }
      }
    }
  ],
  "meshes": [
    {
      "name": "Sekop Pasir_Sekop Pasir_MAT_0",
      "primitives": [
        {
          "attributes": {
            "NORMAL": 1,
            "POSITION": 0,
            "TANGENT": 2,
            "TEXCOORD_0": 3
          },
          "indices": 4,
          "material": 0,
          "mode": 4
        }
      ]
    }
  ],
  "nodes": [
    {
      "children": [
        1
      ],
      "matrix": [
        1.0,
        0.0,
        0.0,
        0.0,
        0.0,
        2.220446049250313e-16,
        -1.0,
        0.0,
        0.0,
        1.0,
        2.220446049250313e-16,
        0.0,
        0.0,
        0.0,
        0.0,
        1.0
      ],
      "name": "Sketchfab_model"
    },
    {
      "children": [
        2
      ],
      "matrix": [
        0.009999999776482582,
        0.0,
        0.0,
        0.0,
        0.0,
        0.0,
        0.009999999776482582,
        0.0,
        0.0,
        -0.009999999776482582,
        0.0,
        0.0,
        0.0,
        0.0,
        0.0,
        1.0
      ],
      "name": "fda0a14b011842faa7ffcfca13657664.fbx"
    },
    {
      "children": [
        3
      ],
      "name": "RootNode"
    },
    {
      "children": [
        4
      ],
      "matrix": [
        100.0,
        0.0,
        0.0,
        0.0,
        0.0,
        -1.629206793918314e-05,
        -99.99999999999868,
        0.0,
        0.0,
        99.99999999999868,
        -1.629206793918314e-05,
        0.0,
        0.0,
        0.0,
        0.0,
        1.0
      ],
      "name": "Sekop Pasir"
    },
    {
      "mesh": 0,
      "name": "Sekop Pasir_Sekop Pasir_MAT_0"
    }
  ],
  "samplers": [
    {
      "magFilter": 9729,
      "minFilter": 9987,
      "wrapS": 10497,
      "wrapT": 10497
    }
  ],
  "scene": 0,
  "scenes": [
    {
      "name": "Sketchfab_Scene",
      "nodes": [
        0
      ]
    }
  ],
  "textures": [
    {
      "sampler": 0,
      "source": 0
    },
    {
      "sampler": 0,
      "source": 1
    },
    {
      "sampler": 0,
      "source": 2
    }
  ]
}
